<?xml version="1.0" encoding="utf-8"?>
<!-- Generator: Adobe Illustrator 25.0.0, SVG Export Plug-In . SVG Version: 6.00 Build 0)  -->
<svg version="1.1" id="Layer_1" xmlns="http://www.w3.org/2000/svg" xmlns:xlink="http://www.w3.org/1999/xlink" x="0px" y="0px"
	 viewBox="0 0 80 80" style="enable-background:new 0 0 80 80;" xml:space="preserve">
<style type="text/css">
	.st0{fill:#D93027;stroke:#D93027;stroke-width:0.5;stroke-miterlimit:10;}
</style>
<g>
	<path class="st0" d="M40.1,79.3c0-0.8,0-1.6,0-2.4c12.2-0.4,22.2-5.2,29.5-14.9c5.4-7.1,7.7-15.2,7.2-24.1
		C75.7,18.4,59.6,3.3,40.2,3.2C19.5,3.1,3,20.1,3.2,40c-0.8,0-1.5,0-2.5,0c0.2-2.1,0.3-4.2,0.6-6.3c1.3-8.1,4.9-15.2,10.6-21.1
		c5.8-6,12.9-9.8,21.1-11.2c11.1-1.9,21.3,0.4,30.3,7c8.4,6.2,13.5,14.5,15.4,24.8c0.3,1.5,0.4,3,0.6,4.5c0,1.5,0,3.1,0,4.6
		c0,0.2-0.1,0.4-0.1,0.7c-0.4,5.5-1.8,10.7-4.5,15.5c-6.1,11.1-15.4,17.8-27.8,20.2c-1.5,0.3-3,0.4-4.5,0.6
		C41.6,79.3,40.8,79.3,40.1,79.3z"/>
	<path class="st0" d="M52,52c-0.6-0.7-1.2-1.2-1.7-1.8c0.1-0.2,0.3-0.4,0.5-0.5c3.4-3.4,6.7-6.7,10.1-10.1c1-1,1.6-1,2.6,0.1
		c2.8,3.3,2.8,7.5-0.1,10.7c-2.7,2.9-5.5,5.6-8.3,8.4c-2.1,2.1-4.2,4.2-6.3,6.3c-0.5,0.6-1.1,0.8-1.9,0.8c-8,0-15.9,0-23.9,0
		c-0.6,0-1,0.2-1.4,0.6c-2.3,2.4-4.7,4.7-7,7c-0.2,0.2-0.3,0.5-0.5,0.7c-0.7-0.7-1.2-1.3-1.8-1.9c0.1-0.1,0.2-0.3,0.4-0.4
		c2.6-2.6,5.1-5.1,7.7-7.7c0.5-0.5,1-0.7,1.8-0.7c8,0,16,0,24,0c0.5,0,0.9-0.1,1.3-0.5c4.7-4.7,9.4-9.4,14.1-14.2
		c1.6-1.6,1.9-3.6,1.1-5.7c-0.1-0.1-0.1-0.3-0.2-0.4c-0.1-0.2-0.2-0.4-0.4-0.6C58.7,45.2,55.4,48.6,52,52z"/>
	<path class="st0" d="M46,49.8c-0.3,0-0.6,0-0.8,0c-9.1,0-18.1,0-27.2,0c-0.5,0-0.9,0.2-1.3,0.5c-4.4,4.4-8.8,8.8-13.2,13.2
		C3.3,63.7,3.2,64,3,64.2c-0.6-0.7-1.2-1.3-1.7-1.9c0.1-0.1,0.3-0.3,0.4-0.5c4.6-4.6,9.1-9.1,13.7-13.7c0.6-0.6,1.2-0.8,2-0.8
		c9.8,0,19.6,0,29.4,0c1.5,0,2,0.5,1.8,1.9c-0.2,1.6-0.6,3.2-1.7,4.5c-1,1.3-2.3,2-3.9,2.1c-4.6,0.1-9.2,0-13.8,0c0,0-0.1,0-0.2-0.1
		c0-0.7,0-1.5,0-2.4c0.3,0,0.5,0,0.8,0c4,0,7.9,0,11.9,0C44.4,53.5,45.5,52.5,46,49.8z"/>
	<path class="st0" d="M31.5,41.2c0-0.8,0-1.6,0-2.5c1.6,0,3.2,0,4.7,0c0.6,0,1-0.2,1.5-0.6c3.7-3.7,7.3-7.4,11-11
		c0.2-0.2,0.3-0.4,0.6-0.6c-1.9,0-3.7,0-5.5,0c0-0.8,0-1.6,0-2.4c0.2,0,0.3,0,0.5,0c2.6,0,5.1,0,7.7,0c1.1,0,1.6,0.4,1.6,1.6
		c0,2.3,0,4.6,0,7c-0.8,0-1.6,0-2.4,0c0-1.4,0-2.8,0-4.3c-0.3,0.3-0.5,0.5-0.7,0.7c-3.8,3.8-7.7,7.7-11.5,11.5
		c-0.5,0.5-1.1,0.8-1.9,0.8C35.2,41.2,33.4,41.2,31.5,41.2z"/>
	<path class="st0" d="M38.8,8.1c0,0.8,0,1.6,0,2.3c-12.7,0.8-21.3,7-25.8,19c-0.7-0.2-1.4-0.4-2.2-0.7C14.1,17,25.8,7.9,38.8,8.1z"
		/>
	<path class="st0" d="M11.5,44.5c-0.6-0.6-1.1-1.1-1.6-1.7c1.2-1.3,2.5-2.6,3.7-3.9c0.2-0.2,0.5-0.2,0.8-0.2c3.2,0,6.4,0,9.6,0
		c0,0.8,0,1.6,0,2.5c-0.3,0-0.5,0-0.8,0c-2.5,0-5,0-7.5,0c-0.7,0-1.2,0.2-1.7,0.7C13.3,42.8,12.4,43.7,11.5,44.5z"/>
	<path class="st0" d="M26.6,41.2c0-0.8,0-1.6,0-2.4c0.8,0,1.6,0,2.4,0c0,0.8,0,1.5,0,2.4C28.2,41.2,27.4,41.2,26.6,41.2z"/>
</g>
</svg>
