<?xml version="1.0" encoding="utf-8"?>
<!-- Generator: Adobe Illustrator 25.0.0, SVG Export Plug-In . SVG Version: 6.00 Build 0)  -->
<svg version="1.1" id="Layer_1" xmlns="http://www.w3.org/2000/svg" xmlns:xlink="http://www.w3.org/1999/xlink" x="0px" y="0px"
	 viewBox="0 0 80 80" style="enable-background:new 0 0 80 80;" xml:space="preserve">
<style type="text/css">
	.st0{fill:#D93027;stroke:#D93027;stroke-width:0.5;stroke-miterlimit:10;}
</style>
<g>
	<path class="st0" d="M79.4,35.1c0,1.4,0,2.8,0,4.1c-0.5,1.2-1.4,1.7-2.6,1.6c-0.5,0-1,0-1.5,0c-0.5,0-0.7,0.2-0.7,0.6
		c-1.3,9.1-2.5,18.2-3.8,27.2c-0.1,1-0.3,2-0.4,3c0.2,0,0.4,0,0.5,0c1.7,0.1,2.4,0.8,2.4,2.5c0,0.7,0,1.4,0,2.1
		c0.1,1.3-0.4,2.2-1.6,2.6c-21,0-41.9,0-62.9,0c-0.8-0.3-1.5-0.8-1.6-1.7C7,76,7,74.7,7,73.4c0.1-1,0.9-1.6,1.9-1.7
		c0.3,0,0.6,0,0.9-0.1c0-0.3,0-0.5,0-0.7c-0.4-2.7-0.7-5.3-1.1-8c-1-6.8-1.9-13.6-2.8-20.3c-0.3-1.8-0.2-1.8-2-1.8
		c-0.1,0-0.3,0-0.4,0c-1.3,0.1-2.2-0.4-2.6-1.6c0-1.4,0-2.8,0-4.1c0.3-0.4,0.6-0.9,1-1.1c0.4-0.3,1-0.4,1.5-0.4c1.7,0,3.5,0,5.3,0
		c0-0.4,0-0.8,0-1.1c0-4.1-0.1-8.1,0.1-12.2c0.1-3.4,2.6-6.1,5.9-6.7c0.7-0.1,1.5-0.1,2.3-0.2c-0.2-0.3-0.4-0.5-0.5-0.7
		c-2.5-3.3-1.9-7.9,1.3-10.5c1.1-0.9,2.4-1.4,3.8-1.7c0.7,0,1.4,0,2.1,0c0.1,0,0.3,0.1,0.4,0.1c4.3,0.9,7,5.2,5.9,9.5
		c-0.3,1.2-1,2.3-1.6,3.4c0.2,0,0.4,0,0.7,0c3.7,0,6.8,2.7,7.3,6.4c0.2,1.2,0.1,2.5,0.1,3.8c0,0.7,0,1.4,0,2.2c1-1.3,2.2-2,3.8-2
		s2.8,0.8,3.8,2.2c0-0.8,0-1.4,0-2c0-0.8,0.4-1.3,1.1-1.3c0.7,0,1.2,0.5,1.2,1.3c0,0.6,0,1.2,0,1.8c1.3,0,2.6,0,3.9,0
		c0-0.7,0-1.3,0-1.9c0-0.8,0.6-1.3,1.3-1.1c0.7,0.1,1,0.6,1,1.3c0,2.9,0,5.8,0,8.7c0,0.3,0,0.5,0,0.8c3.6,0,7.1,0,10.7,0
		c0-0.2,0-0.4,0-0.6c0-3,0-6,0-9c0-0.8,0.5-1.3,1.1-1.3c0.7,0,1.1,0.5,1.1,1.3c0,0.6,0,1.1,0,1.7c1.3,0,2.6,0,3.9,0
		c0-1.6,0-3.1,0-4.6c0-3.2-2.1-5.3-5.4-5.3c-4.1,0-8.3,0-12.4,0c-2.2,0-3.9,1-4.9,3c-0.4,0.8-1,1-1.6,0.7c-0.7-0.3-0.9-1-0.5-1.8
		c1.3-2.6,3.5-4.1,6.4-4.2c0.4,0,0.7,0,1.2,0c-0.3-0.3-0.4-0.5-0.5-0.7c-2.7-3.5-2-8.4,1.7-10.9c1-0.7,2.2-1,3.3-1.4
		c0.7,0,1.4,0,2.1,0c0.1,0,0.2,0.1,0.3,0.1c5.9,1.2,8.3,7.7,4.6,12.4c-0.1,0.1-0.2,0.3-0.3,0.4c0.7,0,1.4,0,2,0.1
		c3.8,0.6,6.2,3.6,6.3,7.5c0,3.9,0,7.7,0,11.6c0,0.3,0,0.6,0,0.9c1.7,0,3.3,0,5,0C77.8,33.5,78.8,33.9,79.4,35.1z M9.3,76.6
		c20.5,0,41,0,61.5,0c0-0.9,0-1.7,0-2.6c-0.4,0-0.7,0-1,0c-15.3,0-30.5,0-45.8,0c-0.3,0-0.6,0-0.9,0c-0.6-0.1-1-0.5-0.9-1.2
		c0-0.6,0.4-1,1-1c0.3,0,0.6,0,0.8,0c14.3,0,28.5,0,42.8,0c0.2,0,0.4,0.1,0.6,0c0.2-0.1,0.5-0.3,0.6-0.5c0.3-1.5,0.4-3,0.7-4.6
		c1-7.1,2-14.3,3-21.4c0.2-1.4,0.4-2.9,0.6-4.4c-0.5,0-0.8,0-1.1,0c-1.2,0-2.5,0-3.7,0c-0.7,0-1.1-0.5-1.1-1.1s0.5-1.1,1.1-1.1
		c0.2,0,0.5,0,0.7,0c2.7,0,5.4,0,8.1,0c0.3,0,0.5,0,0.8,0c0-0.9,0-1.8,0-2.6c-24.6,0-49.2,0-73.9,0c0,0.9,0,1.7,0,2.6
		c0.4,0,0.8,0,1.1,0c19,0,38,0,57,0c0.3,0,0.6,0,0.9,0c0.7,0.1,1,0.5,1,1.1c0,0.7-0.4,1-1,1.1c-0.3,0-0.7,0-1,0
		c-17.4,0-34.8,0-52.2,0c-0.3,0-0.7,0-1.1,0c0,0.3,0,0.6,0,0.8c0.4,2.6,0.7,5.3,1.1,7.9c1,7.1,2,14.3,3,21.4
		c0.1,0.6,0.3,0.8,0.9,0.8c1.6,0,3.2,0,4.8,0c0.7,0,1.1,0.5,1.2,1.1c0,0.6-0.4,1.1-1.1,1.2c-0.2,0-0.5,0-0.7,0c-2.4,0-4.7,0-7.1,0
		c-0.3,0-0.5,0-0.9,0C9.3,74.9,9.3,75.8,9.3,76.6z M17,33.5c3.6,0,7.1,0,10.7,0c0-0.3,0-0.6,0-0.9c0-2.9,0-5.7,0-8.6
		c0-1,0.4-1.5,1.1-1.5c0.7,0,1.1,0.5,1.1,1.5c0,0.5,0,1,0,1.5c1.3,0,2.6,0,3.9,0c0-1.7,0-3.4,0-5.1c-0.1-2.6-2.2-4.8-4.8-4.8
		c-4.5,0-8.9,0-13.4,0c-2.5,0-4.7,2-4.8,4.5c-0.1,1.7,0,3.4,0,5.1c0,0.1,0.1,0.2,0.1,0.3c1.3,0,2.5,0,3.8,0c0-0.3,0-0.6,0-0.9
		c0-0.3,0-0.6,0-0.9c0-0.7,0.5-1.2,1.1-1.2c0.7,0,1.2,0.5,1.2,1.2c0,0.7,0,1.3,0,2C17,28.4,17,30.9,17,33.5z M17,8
		c0,3,2.4,5.4,5.3,5.4c2.9,0,5.4-2.4,5.4-5.4c0-2.9-2.4-5.3-5.3-5.4C19.5,2.7,17.1,5.1,17,8z M57.8,2.7c-3,0-5.4,2.4-5.4,5.3
		c0,2.9,2.4,5.4,5.4,5.4c2.9,0,5.3-2.4,5.3-5.3C63.1,5.1,60.7,2.7,57.8,2.7z M45.1,33.5c0-0.7,0-1.4,0-2.1c0-0.2-0.3-0.5-0.5-0.5
		c-3,0-6,0-9,0c-0.2,0-0.5,0.3-0.5,0.4c-0.1,0.7,0,1.5,0,2.2C38.4,33.5,41.7,33.5,45.1,33.5z M10.9,28c0,1.9,0,3.7,0,5.5
		c1.3,0,2.5,0,3.8,0c0-1.8,0-3.6,0-5.5C13.4,28,12.2,28,10.9,28z M69.3,28.1c-1.3,0-2.6,0-3.8,0c0,1.9,0,3.7,0,5.5
		c1.3,0,2.5,0,3.8,0C69.3,31.7,69.3,29.9,69.3,28.1z M32.7,33.5c0-0.8-0.1-1.5,0-2.1c0.1-0.7,0.4-1.4,0.8-1.9
		c0.4-0.5,0.5-0.9,0.4-1.4c-1.3,0-2.5,0-3.8,0c0,1.9,0,3.7,0,5.5C31,33.5,31.8,33.5,32.7,33.5z M50,33.5c0-1.9,0-3.7,0-5.5
		c-1.3,0-2.5,0-3.8,0c-0.1,0.6,0,1,0.4,1.5c0.4,0.5,0.6,1.3,0.8,1.9c0.1,0.7,0,1.4,0,2.1C48.4,33.5,49.2,33.5,50,33.5z M38.1,28.6
		c1.3,0,2.6,0,3.8,0c0.1-1-0.1-1.8-0.9-2.3c-0.7-0.4-1.4-0.4-2,0C38.2,26.8,38,27.6,38.1,28.6z"/>
	<path class="st0" d="M40.1,48.4c3.5,0,7,0,10.5,0c2,0,3.1,1,3.1,3.1c0,2.9,0,5.7,0,8.6c0,1.9-1.1,3-3,3c-7.1,0-14.1,0-21.2,0
		c-1.9,0-3-1.1-3-3c0-2.9,0-5.8,0-8.7c0-1.9,1.1-3,3-3C33.1,48.4,36.6,48.4,40.1,48.4z M40.1,60.8c3.4,0,6.8,0,10.3,0c1,0,1,0,1-1
		c0-2.7,0-5.5,0-8.2c0-0.7-0.2-0.9-0.9-0.9c-6.9,0-13.9,0-20.8,0c-0.7,0-0.9,0.2-0.9,0.9c0,2.7,0,5.5,0,8.2c0,1,0,1,1,1
		C33.3,60.8,36.7,60.8,40.1,60.8z"/>
</g>
</svg>
