<?xml version="1.0" encoding="utf-8"?>
<!-- Generator: Adobe Illustrator 25.0.0, SVG Export Plug-In . SVG Version: 6.00 Build 0)  -->
<svg version="1.1" id="Layer_1" xmlns="http://www.w3.org/2000/svg" xmlns:xlink="http://www.w3.org/1999/xlink" x="0px" y="0px"
	 viewBox="0 0 80 80" style="enable-background:new 0 0 80 80;" xml:space="preserve">
<style type="text/css">
	.st0{fill:#D93027;stroke:#D93027;stroke-width:0.5;stroke-miterlimit:10;}
</style>
<g>
	<path class="st0" d="M60.1,0.9C60.2,0.9,60.3,1,60.4,1c1.7,0.6,2.7,2,2.7,3.8c0,3,0,6,0,9c0,0.9-0.5,1.4-1.2,1.4
		c-0.7,0-1.1-0.5-1.1-1.4c0-2.8,0-5.6,0-8.3c0-1.8-0.5-2.3-2.2-2.3c-15,0-30,0-45.1,0c-1.9,0-2.3,0.4-2.3,2.4c0,0.2,0,0.4,0,0.7
		c0.4,0,0.7,0,1,0c13.7,0,27.4,0,41,0c2.8,0,4.5,2,4.5,4.5c-0.1,20.2,0,40.3,0,60.5c0,0.3,0,0.7,0,1.1c0.6,0,1.2,0,1.7,0
		c0.7-0.1,1.1-0.5,1.3-1.2c0.1-0.3,0.1-0.7,0.1-1.1c0-16.5,0-33.1,0-49.6c0-0.3,0-0.6,0-0.9c0-0.7,0.5-1.2,1.1-1.2
		c0.6,0,1.1,0.5,1.2,1.2c0,0.2,0,0.4,0,0.5c0,16.7,0,33.5,0,50.2c0,2.3-1.2,3.9-3.1,4.3c-0.8,0.1-1.7,0-2.7,0
		c0.3,2.6-0.5,4.6-3.1,5.4c-16,0-31.9,0-47.9,0c-2.5-1-3.2-2-3.2-4.8c0-3.1,0-6.3,0-9.4c0-0.3,0-0.6,0.1-0.9
		c0.2-0.6,0.6-0.8,1.2-0.8c0.6,0,0.9,0.4,1,0.9c0,0.2,0,0.5,0,0.8c0,3.3,0,6.5,0,9.8c0,1.6,0.5,2.1,2.1,2.1c15.1,0,30.3,0,45.4,0
		c1.6,0,2.1-0.5,2.1-2.1c0-21.7,0-43.3,0-65c0-1.6-0.5-2-2-2c-15.2,0-30.4,0-45.5,0c-1.6,0-2.1,0.5-2.1,2.1c0,16.1,0,32.2,0,48.3
		c0,0.3,0,0.7,0,1c-0.1,0.6-0.5,0.9-1,1c-0.6,0-1-0.2-1.2-0.8c-0.1-0.3-0.1-0.6-0.1-0.8c0-16.3,0-32.5,0-48.8c0-2.7,1.6-4.3,4.3-4.3
		c0.5,0,1,0,1.5,0c0-0.5,0-0.9,0-1.3c0-2,1-3.3,2.8-3.9c0.1,0,0.2-0.1,0.3-0.1C28,0.9,44.1,0.9,60.1,0.9z"/>
	<path class="st0" d="M35.7,25.5c0,3.3,0,6.6,0,10c0,1.9-1.1,3-3,3c-6.7,0-13.3,0-20,0c-1.9,0-3-1.1-3-3c0-6.7,0-13.3,0-20
		c0-1.9,1.1-3,3-3c6.7,0,13.3,0,20,0c1.9,0,3,1.1,3,3C35.7,18.8,35.7,22.1,35.7,25.5z M22.7,14.8c-3.2,0-6.5,0-9.7,0
		c-0.6,0-0.9,0.1-0.9,0.9c0,6.5,0,13.1,0,19.6c0,0.7,0.2,0.9,0.9,0.9c6.5,0,13,0,19.5,0c0.7,0,0.9-0.2,0.9-0.9c0-6.5,0-13.1,0-19.6
		c0-0.7-0.2-0.9-0.9-0.9C29.2,14.8,26,14.8,22.7,14.8z"/>
	<path class="st0" d="M20,62.9c0.6-0.6,1.1-1.2,1.8-1.8c0.6-0.6,1.3-0.7,1.8-0.2c0.5,0.5,0.5,1.1-0.1,1.8c-0.7,0.7-1.4,1.4-2,2.2
		c-0.2,0.3-0.4,0.8-0.4,1.1c0,1.7,0,3.4,0,5.1c0,1.8-1,2.7-2.7,2.7c-1.9,0-3.9,0-5.8,0c-1.7,0-2.7-1-2.7-2.7c0-1.9,0-3.9,0-5.8
		c0-1.7,1-2.7,2.7-2.7c1.9,0,3.9,0,5.8,0C18.7,62.6,19.3,62.8,20,62.9z M12.1,65c0.9,1.3,1.7,2.5,2.5,3.7c1.2-1.3,2.3-2.4,3.5-3.7
		C15.9,65,14,65,12.1,65z M15.2,71.4c1.2,0,2.3,0,3.4,0c0-1.2,0-2.3,0-3.6C17.4,69.1,16.3,70.2,15.2,71.4z M13.6,71.4
		c-0.5-0.8-0.9-1.4-1.5-2.2c0,0.9,0,1.5,0,2.2C12.6,71.4,13,71.4,13.6,71.4z"/>
	<path class="st0" d="M30.2,56c6.3,0,12.6,0,18.8,0c0.3,0,0.7-0.1,0.8,0.1c0.3,0.3,0.7,0.7,0.8,1.1c0.1,0.6-0.3,1-0.9,1.1
		c-0.3,0.1-0.6,0-0.8,0c-12.5,0-25,0-37.5,0c-0.1,0-0.3,0-0.4,0c-0.8,0-1.4-0.5-1.4-1.2c0-0.7,0.5-1.1,1.4-1.1c4.4,0,8.9,0,13.3,0
		C26.3,56,28.2,56,30.2,56z"/>
	<path class="st0" d="M30.2,42.9c6.2,0,12.4,0,18.6,0c0.3,0,0.5,0,0.8,0c0.6,0.1,1,0.4,1,1c0.1,0.6-0.3,1-0.9,1.2
		c-0.3,0.1-0.6,0.1-0.8,0.1c-12.5,0-25,0-37.5,0c0,0-0.1,0-0.2,0c-1,0-1.6-0.4-1.6-1.1c0-0.8,0.5-1.2,1.6-1.2
		C17.6,42.9,23.9,42.9,30.2,42.9z"/>
	<path class="st0" d="M30.1,51.8c-6.2,0-12.4,0-18.5,0c-0.3,0-0.6,0-0.9,0c-0.6-0.1-1-0.5-1-1.1s0.3-1,0.9-1.2c0.2-0.1,0.5,0,0.8,0
		c12.5,0,25,0,37.5,0c0.3,0,0.6,0,0.8,0.1c0.6,0.2,0.9,0.6,0.9,1.2c0,0.6-0.4,0.9-1,1c-0.3,0-0.6,0-0.9,0
		C42.6,51.8,36.4,51.8,30.1,51.8z"/>
	<path class="st0" d="M37.1,69.3c-4,0-7.9,0-11.9,0c-0.6,0-1.1-0.1-1.4-0.7c-0.3-0.7,0.1-1.5,0.9-1.6c0.2,0,0.5,0,0.8,0
		c7.8,0,15.6,0,23.4,0c0.2,0,0.3,0,0.5,0c0.8,0,1.3,0.5,1.3,1.1c0,0.7-0.5,1.2-1.3,1.2C45.3,69.3,41.2,69.3,37.1,69.3z"/>
	<path class="st0" d="M44.4,27c-1.6,0-3.2,0-4.8,0c-1,0-1.5-0.4-1.5-1.2c0-0.7,0.5-1.1,1.4-1.1c3.2,0,6.4,0,9.7,0
		c0.9,0,1.4,0.4,1.4,1.1c0,0.8-0.5,1.2-1.5,1.2C47.6,27,46,27,44.4,27z"/>
	<path class="st0" d="M44.4,20.4c-1.6,0-3.3,0-4.9,0c-1,0-1.6-0.8-1.2-1.5c0.2-0.4,0.7-0.7,1.1-0.7c3.4-0.1,6.7,0,10.1,0
		c0.8,0,1.2,0.5,1.2,1.1c0,0.7-0.5,1.2-1.2,1.2C47.8,20.4,46.1,20.4,44.4,20.4z"/>
	<path class="st0" d="M44.4,34c-1.6,0-3.3,0-4.9,0c-0.9,0-1.4-0.6-1.3-1.3c0.1-0.7,0.6-1,1.2-1c3.4,0,6.7,0,10.1,0
		c0.8,0,1.2,0.5,1.2,1.1c0,0.7-0.4,1.2-1.2,1.2C47.8,34,46.1,34,44.4,34L44.4,34z"/>
	<path class="st0" d="M77.5,42.9c0,5.3,0,10.6,0,15.9c0,0.5-0.1,1.1-0.4,1.5c-1.1,2.3-2.3,4.6-3.4,6.9c-0.4,0.8-0.9,1.4-1.9,1.4
		s-1.5-0.6-1.9-1.4c-1.1-2.3-2.3-4.6-3.5-7c-0.2-0.4-0.3-0.8-0.3-1.2c0-10.8,0-21.5,0-32.3c0-1.8,1-2.8,2.9-2.9c1.8,0,3.7,0,5.5,0
		c2,0,3,1,3,3C77.5,32.2,77.5,37.6,77.5,42.9z M75.1,58.2c0-8.3,0-16.5,0-24.7c-2.2,0-4.5,0-6.7,0c0,8.3,0,16.5,0,24.7
		C70.7,58.2,72.9,58.2,75.1,58.2z M75.2,31.1c0-1.5,0-3,0-4.5c0-0.1-0.3-0.4-0.5-0.4c-1.9,0-3.9,0-5.8,0c-0.2,0-0.5,0.2-0.5,0.3
		c0,1.5,0,3,0,4.5C70.7,31.1,72.9,31.1,75.2,31.1z M71.8,65.9c0.9-1.8,1.8-3.6,2.7-5.3c-1.8,0-3.5,0-5.3,0
		C70,62.3,70.9,64,71.8,65.9z"/>
	<path class="st0" d="M26.1,26c2.5,1.8,2.4,4.4,2.3,7.1c0,0.7-0.5,1.1-1.2,1.1c-1.2,0-2.4,0-3.6,0c-0.7,0-1.1-0.5-1.1-1.1
		c0-0.7,0.5-1.1,1.2-1.2c0.8,0,1.5,0,2.3,0c0.7-2.7-1.2-5-3.7-4.6c-1.5,0.2-2.7,1.4-2.8,2.9c-0.1,0.9,0,1.8-0.1,2.6
		c0,0.9-0.4,1.4-1.1,1.5s-1.2-0.5-1.2-1.4c0-0.7,0-1.4,0-2.2c0-1.9,0.8-3.4,2.2-4.6c-2.4-2.9-2.5-5.8-0.2-8c2.1-1.9,5.2-1.9,7.3,0
		C28.1,19.8,29,23.2,26.1,26z M25.7,21.9c0-1.7-1.4-3-3-2.9c-1.6,0-2.9,1.4-2.9,3c0,1.6,1.3,2.9,3,2.9
		C24.4,24.9,25.7,23.6,25.7,21.9z"/>
</g>
</svg>
